<?xml version="1.0" standalone="no"?><!-- Generator: Gravit.io --><svg xmlns="http://www.w3.org/2000/svg" xmlns:xlink="http://www.w3.org/1999/xlink" style="isolation:isolate" viewBox="0.4141101299344143 0.12923906416698117 403 76.664" width="403" height="76.664"><path d=" M 1.7581101299344144 14.577239064166982 L 28.526110129934416 14.577239064166982 L 34.91011012993442 33.78523906416698 L 41.07011012993441 14.577239064166982 L 66.88611012993442 14.577239064166982 L 66.88611012993442 23.76123906416698 L 63.526110129934416 23.76123906416698 L 63.526110129934416 48.961239064166975 L 66.88611012993442 48.961239064166975 L 66.88611012993442 58.14523906416698 L 44.48611012993442 58.14523906416698 L 44.48611012993442 48.961239064166975 L 47.84611012993442 48.961239064166975 L 47.84611012993442 26.841239064166977 L 36.70211012993442 58.14523906416698 L 30.654110129934416 58.14523906416698 L 17.998110129934414 26.72923906416698 L 17.998110129934414 48.961239064166975 L 21.358110129934413 48.961239064166975 L 21.358110129934413 58.14523906416698 L 1.7581101299344144 58.14523906416698 L 1.7581101299344144 48.961239064166975 L 5.118110129934414 48.961239064166975 L 5.118110129934414 23.76123906416698 L 1.7581101299344144 23.76123906416698 L 1.7581101299344144 14.577239064166982 Z  M 88.39011012993441 54.33723906416698 Q 87.88611012993441 55.00923906416698 87.0461101299344 55.82123906416698 Q 86.20611012993442 56.63323906416698 85.00211012993441 57.305239064166976 Q 83.79811012993441 57.97723906416698 82.20211012993441 58.45323906416698 Q 80.60611012993441 58.92923906416698 78.5901101299344 58.92923906416698 Q 73.71811012993442 58.92923906416698 70.97411012993442 56.689239064166976 Q 68.2301101299344 54.44923906416698 68.2301101299344 50.19323906416698 Q 68.2301101299344 44.87323906416698 73.1861101299344 42.15723906416698 Q 78.14211012993441 39.44123906416698 88.39011012993441 39.44123906416698 Q 88.39011012993441 37.87323906416698 87.3821101299344 37.03323906416698 Q 86.37411012993441 36.193239064166974 83.23811012993441 36.193239064166974 Q 79.87811012993441 36.193239064166974 76.49011012993441 36.69723906416698 Q 73.1021101299344 37.201239064166984 70.24611012993441 37.817239064166984 L 70.24611012993441 28.18523906416698 Q 73.1021101299344 27.40123906416698 77.24611012993441 26.81323906416698 Q 81.39011012993441 26.225239064166978 85.75811012993441 26.225239064166978 Q 90.23811012993441 26.225239064166978 93.23411012993441 27.065239064166978 Q 96.23011012993442 27.905239064166977 98.02211012993442 29.61323906416698 Q 99.81411012993442 31.321239064166978 100.5421101299344 33.869239064166976 Q 101.27011012993441 36.41723906416698 101.27011012993441 39.77723906416698 L 101.27011012993441 48.961239064166975 L 103.73411012993441 48.961239064166975 L 103.73411012993441 58.14523906416698 L 88.39011012993441 58.14523906416698 L 88.39011012993441 54.33723906416698 Z  M 88.39011012993441 45.04123906416698 Q 84.9181101299344 45.04123906416698 83.4061101299344 45.51723906416698 Q 81.8941101299344 45.99323906416698 81.8941101299344 47.16923906416698 Q 81.8941101299344 48.961239064166975 84.97411012993442 48.961239064166975 Q 88.39011012993441 48.961239064166975 88.39011012993441 45.37723906416698 L 88.39011012993441 45.04123906416698 Z  M 125.1261101299344 27.00923906416698 L 140.4701101299344 27.00923906416698 L 140.4701101299344 36.193239064166974 L 138.0061101299344 36.193239064166974 L 138.0061101299344 55.90523906416698 Q 138.0061101299344 60.04923906416698 136.9701101299344 62.98923906416698 Q 135.9341101299344 65.92923906416698 133.86211012993442 67.77723906416698 Q 131.79011012993442 69.62523906416698 128.76611012993442 70.49323906416699 Q 125.74211012993442 71.36123906416698 121.8221101299344 71.36123906416698 Q 118.1261101299344 71.36123906416698 114.31811012993441 70.80123906416698 Q 110.5101101299344 70.24123906416698 108.43811012993442 69.51323906416698 L 108.43811012993442 60.32923906416698 Q 110.7901101299344 60.77723906416698 113.56211012993441 61.08523906416698 Q 116.33411012993442 61.39323906416698 119.07811012993442 61.39323906416698 Q 122.3821101299344 61.39323906416698 123.75411012993442 60.35723906416698 Q 125.1261101299344 59.32123906416698 125.1261101299344 56.74523906416698 L 125.1261101299344 54.33723906416698 Q 124.62211012993441 55.00923906416698 123.78211012993441 55.82123906416698 Q 122.9421101299344 56.63323906416698 121.85011012993441 57.305239064166976 Q 120.75811012993441 57.97723906416698 119.38611012993441 58.45323906416698 Q 118.01411012993441 58.92923906416698 116.44611012993441 58.92923906416698 Q 110.62211012993441 58.92923906416698 107.79411012993441 54.64523906416698 Q 104.9661101299344 50.36123906416698 104.9661101299344 42.57723906416698 Q 104.9661101299344 34.79323906416698 107.79411012993441 30.50923906416698 Q 110.62211012993441 26.225239064166978 116.44611012993441 26.225239064166978 Q 118.01411012993441 26.225239064166978 119.38611012993441 26.70123906416698 Q 120.75811012993441 27.17723906416698 121.85011012993441 27.84923906416698 Q 122.9421101299344 28.521239064166977 123.78211012993441 29.33323906416698 Q 124.62211012993441 30.14523906416698 125.1261101299344 30.81723906416698 L 125.1261101299344 27.00923906416698 Z  M 118.63011012993441 45.37723906416698 Q 118.63011012993441 47.28123906416698 119.4421101299344 48.12123906416698 Q 120.25411012993442 48.961239064166975 121.87811012993441 48.961239064166975 Q 123.50211012993441 48.961239064166975 124.3141101299344 48.12123906416698 Q 125.1261101299344 47.28123906416698 125.1261101299344 45.37723906416698 L 125.1261101299344 39.77723906416698 Q 125.1261101299344 37.87323906416698 124.3141101299344 37.03323906416698 Q 123.50211012993441 36.193239064166974 121.87811012993441 36.193239064166974 Q 120.25411012993442 36.193239064166974 119.4421101299344 37.03323906416698 Q 118.63011012993441 37.87323906416698 118.63011012993441 39.77723906416698 L 118.63011012993441 45.37723906416698 Z  M 157.3821101299344 48.961239064166975 L 159.8461101299344 48.961239064166975 L 159.8461101299344 58.14523906416698 L 142.0381101299344 58.14523906416698 L 142.0381101299344 48.961239064166975 L 144.5021101299344 48.961239064166975 L 144.5021101299344 36.193239064166974 L 142.0381101299344 36.193239064166974 L 142.0381101299344 27.00923906416698 L 157.3821101299344 27.00923906416698 L 157.3821101299344 48.961239064166975 Z  M 145.8461101299344 14.577239064166982 L 156.1501101299344 14.577239064166982 L 156.1501101299344 23.92923906416698 L 145.8461101299344 23.92923906416698 L 145.8461101299344 14.577239064166982 Z  M 174.5181101299344 44.59323906416698 Q 174.5181101299344 46.66523906416698 175.6661101299344 47.81323906416698 Q 176.8141101299344 48.961239064166975 179.5021101299344 48.961239064166975 Q 182.2461101299344 48.961239064166975 184.9901101299344 48.68123906416698 Q 187.7341101299344 48.40123906416698 190.3101101299344 47.95323906416698 L 190.3101101299344 56.74523906416698 Q 189.2461101299344 57.13723906416698 188.0141101299344 57.52923906416698 Q 186.7821101299344 57.92123906416698 185.2701101299344 58.22923906416698 Q 183.7581101299344 58.53723906416698 181.93811012993442 58.73323906416698 Q 180.1181101299344 58.92923906416698 177.8221101299344 58.92923906416698 Q 173.9021101299344 58.92923906416698 170.7661101299344 57.92123906416698 Q 167.6301101299344 56.91323906416698 165.4181101299344 54.869239064166976 Q 163.20611012993442 52.82523906416698 162.0301101299344 49.77323906416698 Q 160.8541101299344 46.72123906416698 160.8541101299344 42.57723906416698 Q 160.8541101299344 38.48923906416698 162.0301101299344 35.40923906416698 Q 163.20611012993442 32.329239064166984 165.4181101299344 30.28523906416698 Q 167.6301101299344 28.24123906416698 170.7661101299344 27.23323906416698 Q 173.9021101299344 26.225239064166978 177.7661101299344 26.225239064166978 Q 180.1181101299344 26.225239064166978 182.0501101299344 26.56123906416698 Q 183.9821101299344 26.89723906416698 185.5501101299344 27.40123906416698 Q 187.1181101299344 27.905239064166977 188.3781101299344 28.521239064166977 Q 189.6381101299344 29.13723906416698 190.6461101299344 29.69723906416698 L 190.6461101299344 40.78523906416698 L 181.0141101299344 40.78523906416698 L 181.0141101299344 39.77723906416698 Q 181.0141101299344 37.87323906416698 180.2021101299344 37.03323906416698 Q 179.3901101299344 36.193239064166974 177.7661101299344 36.193239064166974 Q 176.1981101299344 36.193239064166974 175.3581101299344 37.03323906416698 Q 174.5181101299344 37.87323906416698 174.5181101299344 39.77723906416698 L 174.5181101299344 44.59323906416698 Z  M 192.7741101299344 14.577239064166982 L 219.5421101299344 14.577239064166982 L 225.92611012993441 33.78523906416698 L 232.0861101299344 14.577239064166982 L 257.9021101299344 14.577239064166982 L 257.9021101299344 23.76123906416698 L 254.5421101299344 23.76123906416698 L 254.5421101299344 48.961239064166975 L 257.9021101299344 48.961239064166975 L 257.9021101299344 58.14523906416698 L 235.5021101299344 58.14523906416698 L 235.5021101299344 48.961239064166975 L 238.8621101299344 48.961239064166975 L 238.8621101299344 26.841239064166977 L 227.71811012993442 58.14523906416698 L 221.67011012993441 58.14523906416698 L 209.0141101299344 26.72923906416698 L 209.0141101299344 48.961239064166975 L 212.3741101299344 48.961239064166975 L 212.3741101299344 58.14523906416698 L 192.7741101299344 58.14523906416698 L 192.7741101299344 48.961239064166975 L 196.1341101299344 48.961239064166975 L 196.1341101299344 23.76123906416698 L 192.7741101299344 23.76123906416698 L 192.7741101299344 14.577239064166982 Z  M 275.15011012993443 48.961239064166975 L 277.6141101299344 48.961239064166975 L 277.6141101299344 58.14523906416698 L 259.8061101299344 58.14523906416698 L 259.8061101299344 48.961239064166975 L 262.27011012993444 48.961239064166975 L 262.27011012993444 36.193239064166974 L 259.8061101299344 36.193239064166974 L 259.8061101299344 27.00923906416698 L 275.15011012993443 27.00923906416698 L 275.15011012993443 48.961239064166975 Z  M 263.6141101299344 14.577239064166982 L 273.91811012993446 14.577239064166982 L 273.91811012993446 23.92923906416698 L 263.6141101299344 23.92923906416698 L 263.6141101299344 14.577239064166982 Z  M 279.18211012993436 27.00923906416698 L 294.5261101299344 27.00923906416698 L 294.5261101299344 30.705239064166978 L 295.08611012993435 30.873239064166977 Q 295.4781101299344 30.08923906416698 296.0941101299344 29.24923906416698 Q 296.7101101299344 28.40923906416698 297.60611012993445 27.737239064166978 Q 298.5021101299344 27.065239064166978 299.65011012993443 26.64523906416698 Q 300.79811012993446 26.225239064166978 302.25411012993436 26.225239064166978 Q 303.4301101299344 26.225239064166978 304.5501101299344 26.39323906416698 Q 305.6701101299344 26.56123906416698 306.7901101299344 27.00923906416698 L 306.7901101299344 36.69723906416698 Q 304.94211012993446 36.36123906416698 303.68211012993436 36.27723906416698 Q 302.42211012993437 36.193239064166974 301.58211012993445 36.193239064166974 Q 297.8861101299344 36.193239064166974 296.20611012993436 37.845239064166975 Q 294.5261101299344 39.497239064166976 294.5261101299344 43.52923906416698 L 294.5261101299344 48.961239064166975 L 299.6221101299344 48.961239064166975 L 299.6221101299344 58.14523906416698 L 279.18211012993436 58.14523906416698 L 279.18211012993436 48.961239064166975 L 281.6461101299344 48.961239064166975 L 281.6461101299344 36.193239064166974 L 279.18211012993436 36.193239064166974 L 279.18211012993436 27.00923906416698 Z  M 308.3581101299344 27.00923906416698 L 323.70211012993434 27.00923906416698 L 323.70211012993434 30.705239064166978 L 324.2621101299344 30.873239064166977 Q 324.65411012993445 30.08923906416698 325.27011012993444 29.24923906416698 Q 325.8861101299344 28.40923906416698 326.7821101299344 27.737239064166978 Q 327.67811012993434 27.065239064166978 328.82611012993436 26.64523906416698 Q 329.9741101299344 26.225239064166978 331.4301101299344 26.225239064166978 Q 332.60611012993445 26.225239064166978 333.72611012993434 26.39323906416698 Q 334.84611012993435 26.56123906416698 335.96611012993435 27.00923906416698 L 335.96611012993435 36.69723906416698 Q 334.1181101299344 36.36123906416698 332.8581101299344 36.27723906416698 Q 331.5981101299344 36.193239064166974 330.7581101299344 36.193239064166974 Q 327.06211012993435 36.193239064166974 325.3821101299344 37.845239064166975 Q 323.70211012993434 39.497239064166976 323.70211012993434 43.52923906416698 L 323.70211012993434 48.961239064166975 L 328.79811012993434 48.961239064166975 L 328.79811012993434 58.14523906416698 L 308.3581101299344 58.14523906416698 L 308.3581101299344 48.961239064166975 L 310.82211012993434 48.961239064166975 L 310.82211012993434 36.193239064166974 L 308.3581101299344 36.193239064166974 L 308.3581101299344 27.00923906416698 Z  M 370.79811012993434 42.57723906416698 Q 370.79811012993434 46.72123906416698 369.6221101299344 49.77323906416698 Q 368.44611012993437 52.82523906416698 366.2341101299344 54.869239064166976 Q 364.0221101299344 56.91323906416698 360.8861101299344 57.92123906416698 Q 357.75011012993434 58.92923906416698 353.8861101299344 58.92923906416698 Q 350.0221101299344 58.92923906416698 346.8861101299344 57.92123906416698 Q 343.75011012993434 56.91323906416698 341.53811012993435 54.869239064166976 Q 339.32611012993436 52.82523906416698 338.15011012993443 49.77323906416698 Q 336.9741101299344 46.72123906416698 336.9741101299344 42.57723906416698 Q 336.9741101299344 38.48923906416698 338.15011012993443 35.40923906416698 Q 339.32611012993436 32.329239064166984 341.53811012993435 30.28523906416698 Q 343.75011012993434 28.24123906416698 346.8861101299344 27.23323906416698 Q 350.0221101299344 26.225239064166978 353.8861101299344 26.225239064166978 Q 357.75011012993434 26.225239064166978 360.8861101299344 27.23323906416698 Q 364.0221101299344 28.24123906416698 366.2341101299344 30.28523906416698 Q 368.44611012993437 32.329239064166984 369.6221101299344 35.40923906416698 Q 370.79811012993434 38.48923906416698 370.79811012993434 42.57723906416698 Z  M 353.8861101299344 48.961239064166975 Q 355.51011012993433 48.961239064166975 356.32211012993434 48.12123906416698 Q 357.13411012993436 47.28123906416698 357.13411012993436 45.37723906416698 L 357.13411012993436 39.77723906416698 Q 357.13411012993436 37.87323906416698 356.32211012993434 37.03323906416698 Q 355.51011012993433 36.193239064166974 353.8861101299344 36.193239064166974 Q 352.2621101299344 36.193239064166974 351.4501101299344 37.03323906416698 Q 350.6381101299344 37.87323906416698 350.6381101299344 39.77723906416698 L 350.6381101299344 45.37723906416698 Q 350.6381101299344 47.28123906416698 351.4501101299344 48.12123906416698 Q 352.2621101299344 48.961239064166975 353.8861101299344 48.961239064166975 Z  M 372.25411012993436 27.00923906416698 L 387.5981101299344 27.00923906416698 L 387.5981101299344 30.705239064166978 L 388.15811012993436 30.873239064166977 Q 388.5501101299344 30.08923906416698 389.1661101299344 29.24923906416698 Q 389.7821101299344 28.40923906416698 390.67811012993445 27.737239064166978 Q 391.5741101299344 27.065239064166978 392.72211012993444 26.64523906416698 Q 393.87011012993446 26.225239064166978 395.32611012993436 26.225239064166978 Q 396.5021101299344 26.225239064166978 397.6221101299344 26.39323906416698 Q 398.7421101299344 26.56123906416698 399.8621101299344 27.00923906416698 L 399.8621101299344 36.69723906416698 Q 398.01411012993447 36.36123906416698 396.75411012993436 36.27723906416698 Q 395.49411012993437 36.193239064166974 394.65411012993445 36.193239064166974 Q 390.9581101299344 36.193239064166974 389.27811012993436 37.845239064166975 Q 387.5981101299344 39.497239064166976 387.5981101299344 43.52923906416698 L 387.5981101299344 48.961239064166975 L 392.6941101299344 48.961239064166975 L 392.6941101299344 58.14523906416698 L 372.25411012993436 58.14523906416698 L 372.25411012993436 48.961239064166975 L 374.7181101299344 48.961239064166975 L 374.7181101299344 36.193239064166974 L 372.25411012993436 36.193239064166974 L 372.25411012993436 27.00923906416698 Z " fill-rule="evenodd" fill="rgb(0,0,0)" stroke-width="1" stroke="rgba(0,0,0,0)" stroke-linejoin="miter" stroke-linecap="square"/></svg>